<svg width="611" height="600" viewBox="0 0 611 600" fill="none" xmlns="http://www.w3.org/2000/svg">
<path d="M305.919 0.83136L306.184 0.0955811L305.92 0L305.655 0.0949097L305.919 0.83136ZM503.059 72.0209L503.734 71.6253L503.591 71.3813L503.325 71.2852L503.059 72.0209ZM609.452 253.515L610.223 253.651L610.273 253.368L610.127 253.12L609.452 253.515ZM572.684 462.39L573.192 462.986L573.406 462.803L573.455 462.526L572.684 462.39ZM413.094 598.511V599.293H413.383L413.602 599.106L413.094 598.511ZM200.308 598.511L199.806 599.111L200.024 599.293H200.308V598.511ZM37.5886 462.39L36.8181 462.526L36.8676 462.807L37.0866 462.99L37.5886 462.39ZM0.820307 253.515L0.145415 253.12L0 253.368L0.049849 253.651L0.820307 253.515ZM107.214 72.0209L106.95 71.2845L106.682 71.3803L106.539 71.6253L107.214 72.0209ZM305.919 0.83136L305.653 1.56714L502.793 72.7568L503.059 72.0209L503.325 71.2852L306.184 0.0955811L305.919 0.83136ZM503.059 72.0209L502.384 72.4166L608.777 253.911L609.452 253.515L610.127 253.12L503.734 71.6253L503.059 72.0209ZM609.452 253.515L608.682 253.38L571.914 462.255L572.684 462.39L573.455 462.526L610.223 253.651L609.452 253.515ZM572.684 462.39L572.176 461.795L412.587 597.916L413.094 598.511L413.602 599.106L573.192 462.986L572.684 462.39ZM413.094 598.511V597.729H200.308V598.511V599.293H413.094V598.511ZM200.308 598.511L200.81 597.911L38.0905 461.79L37.5886 462.39L37.0866 462.99L199.806 599.111L200.308 598.511ZM37.5886 462.39L38.359 462.255L1.59076 253.38L0.820307 253.515L0.049849 253.651L36.8181 462.526L37.5886 462.39ZM0.820307 253.515L1.4952 253.911L107.888 72.4166L107.214 72.0209L106.539 71.6253L0.145415 253.12L0.820307 253.515ZM107.214 72.0209L107.477 72.7574L306.182 1.56781L305.919 0.83136L305.655 0.0949097L106.95 71.2845L107.214 72.0209ZM107.214 72.0209L106.614 72.5235L205.967 191.042L206.566 190.54L207.166 190.037L107.813 71.5184L107.214 72.0209ZM206.566 190.54L205.967 191.042L305.319 309.561L305.919 309.059L306.518 308.556L207.166 190.037L206.566 190.54ZM0.820307 253.515L0.680191 254.285L153.229 282.057L153.369 281.287L153.51 280.517L0.960423 252.746L0.820307 253.515ZM153.369 281.287L153.229 282.057L305.779 309.829L305.919 309.059L306.059 308.289L153.51 280.517L153.369 281.287ZM206.566 190.54L205.891 190.144L152.695 280.891L153.369 281.287L154.044 281.683L207.241 190.936L206.566 190.54ZM37.5886 462.39L37.9767 463.07L172.142 386.404L171.754 385.725L171.365 385.045L37.2004 461.711L37.5886 462.39ZM171.754 385.725L172.142 386.404L306.307 309.738L305.919 309.059L305.531 308.38L171.365 385.045L171.754 385.725ZM153.369 281.287L152.599 281.423L170.983 385.86L171.754 385.725L172.524 385.589L154.14 281.151L153.369 281.287ZM200.308 598.511L201.043 598.779L253.848 454.053L253.113 453.785L252.378 453.517L199.573 598.243L200.308 598.511ZM253.113 453.785L253.848 454.053L306.654 309.327L305.919 309.059L305.184 308.791L252.378 453.517L253.113 453.785ZM171.754 385.725L171.252 386.325L252.611 454.385L253.113 453.785L253.615 453.185L172.256 385.125L171.754 385.725ZM413.094 598.511L413.828 598.239L360.24 453.513L359.506 453.785L358.773 454.057L412.361 598.783L413.094 598.511ZM359.506 453.785L360.24 453.513L306.652 308.787L305.919 309.059L305.185 309.331L358.773 454.057L359.506 453.785ZM572.684 462.39L573.074 461.712L439.691 385.046L439.301 385.725L438.912 386.403L572.294 463.069L572.684 462.39ZM439.301 385.725L439.691 385.046L306.308 308.381L305.919 309.059L305.529 309.737L438.912 386.403L439.301 385.725ZM359.506 453.785L360.014 454.38L439.809 386.32L439.301 385.725L438.794 385.129L358.999 453.19L359.506 453.785ZM609.452 253.515L609.312 252.746L457.545 280.518L457.685 281.287L457.826 282.057L609.593 254.285L609.452 253.515ZM457.685 281.287L457.545 280.518L305.778 308.289L305.919 309.059L306.059 309.828L457.826 282.057L457.685 281.287ZM457.685 281.287L456.915 281.151L438.531 385.589L439.301 385.725L440.072 385.86L458.456 281.423L457.685 281.287ZM253.113 453.785V454.567H359.506V453.785V453.003H253.113V453.785ZM503.059 72.0209L502.458 71.5208L403.887 190.04L404.489 190.54L405.09 191.04L503.661 72.5212L503.059 72.0209ZM404.489 190.54L403.887 190.04L305.317 308.559L305.919 309.059L306.52 309.559L405.09 191.04L404.489 190.54ZM457.685 281.287L458.36 280.891L405.164 190.144L404.489 190.54L403.814 190.936L457.011 281.683L457.685 281.287ZM305.919 309.059H306.701V154.945H305.919H305.136V309.059H305.919ZM305.919 154.945H306.701V0.83136H305.919H305.136V154.945H305.919ZM206.566 190.54L206.83 191.276L306.182 155.682L305.919 154.945L305.655 154.209L206.302 189.803L206.566 190.54ZM404.489 190.54L404.755 189.804L306.184 154.209L305.919 154.945L305.653 155.681L404.223 191.276L404.489 190.54Z" fill="#373737" fill-opacity="0.5"/>
<path d="M130.683 98.6195L131.326 97.1932L127.265 95.362L129.289 99.3305L130.683 98.6195ZM229.253 291.848L230.326 292.987L231.18 292.183L230.647 291.137L229.253 291.848ZM66.5338 445.18L65.4608 444.041L64.3685 445.07L65.3515 446.205L66.5338 445.18ZM198.743 597.729L197.561 598.754L198.243 599.541L199.232 599.215L198.743 597.729ZM388.843 535.145L389.332 536.631L389.727 536.501L390.005 536.192L388.843 535.145ZM495.236 417.017L496.399 418.064L496.664 417.769L496.757 417.383L495.236 417.017ZM531.222 267.597L532.743 267.963L533.029 266.777L531.948 266.211L531.222 267.597ZM398.23 197.972L398.956 196.586L398.771 196.489L398.567 196.444L398.23 197.972ZM305.919 177.632L305.276 179.058L305.423 179.125L305.582 179.16L305.919 177.632ZM130.683 98.6195L129.289 99.3305L227.859 292.559L229.253 291.848L230.647 291.137L132.076 97.9085L130.683 98.6195ZM229.253 291.848L228.18 290.71L65.4608 444.041L66.5338 445.18L67.6068 446.319L230.326 292.987L229.253 291.848ZM66.5338 445.18L65.3515 446.205L197.561 598.754L198.743 597.729L199.925 596.704L67.7162 444.155L66.5338 445.18ZM198.743 597.729L199.232 599.215L389.332 536.631L388.843 535.145L388.354 533.659L198.254 596.243L198.743 597.729ZM388.843 535.145L390.005 536.192L496.399 418.064L495.236 417.017L494.073 415.97L387.68 534.098L388.843 535.145ZM495.236 417.017L496.757 417.383L532.743 267.963L531.222 267.597L529.701 267.231L493.715 416.651L495.236 417.017ZM531.222 267.597L531.948 266.211L398.956 196.586L398.23 197.972L397.505 199.358L530.496 268.983L531.222 267.597ZM398.23 197.972L398.567 196.444L306.255 176.104L305.919 177.632L305.582 179.16L397.894 199.5L398.23 197.972ZM305.919 177.632L306.562 176.206L131.326 97.1932L130.683 98.6195L130.04 100.046L305.276 179.058L305.919 177.632Z" fill="#2E3192"/>
</svg>
