<svg width="343" height="116" viewBox="0 0 343 116" fill="none" xmlns="http://www.w3.org/2000/svg">
<rect width="343" height="116" rx="12" fill="black"/>
<path d="M110.288 83.2188H21.0001" stroke="white" stroke-linecap="round"/>
<path d="M88.2417 92.0361H22.1025" stroke="white" stroke-linecap="round"/>
<path d="M82.7299 27C79.282 38.639 76.0992 47.087 71.8949 54.8262L60.9213 35.8193C55.039 53.7975 50.013 62.4717 38.0101 75.5029H83.8324L83.8314 75.502H108.083L82.7299 27ZM71.3304 55.8467C67.8753 62.0229 63.7236 67.8119 58.2035 74.5029H40.2709C45.5136 68.6788 49.3908 63.617 52.6263 58.0166C55.8846 52.3768 58.4743 46.2222 61.1674 38.2451L71.3304 55.8467ZM82.099 74.502H59.4994C64.6474 68.2159 68.5973 62.6892 71.9105 56.8525L82.099 74.502ZM106.433 74.502H83.2543L72.4789 55.8359C76.5713 48.4165 79.6995 40.4034 82.9808 29.6367L106.433 74.502Z" fill="white"/>
<path d="M140 77.5176V48.0936H128.48V43.9176H156.272V48.0936H144.752V77.5176H140ZM167.178 77.5176V52.0776H171.594V58.9896L171.162 57.2616C171.866 55.5016 173.05 54.1576 174.714 53.2296C176.378 52.3016 178.426 51.8376 180.858 51.8376V56.3016C180.666 56.2696 180.474 56.2536 180.282 56.2536C180.122 56.2536 179.962 56.2536 179.802 56.2536C177.338 56.2536 175.386 56.9896 173.946 58.4616C172.506 59.9336 171.786 62.0616 171.786 64.8456V77.5176H167.178ZM207.415 77.5176V72.1416L207.175 71.1336V61.9656C207.175 60.0136 206.599 58.5096 205.447 57.4536C204.327 56.3656 202.631 55.8216 200.359 55.8216C198.855 55.8216 197.383 56.0776 195.943 56.5896C194.503 57.0696 193.287 57.7256 192.295 58.5576L190.375 55.1016C191.687 54.0456 193.255 53.2456 195.079 52.7016C196.935 52.1256 198.871 51.8376 200.887 51.8376C204.375 51.8376 207.063 52.6856 208.951 54.3816C210.839 56.0776 211.783 58.6696 211.783 62.1576V77.5176H207.415ZM199.063 77.8056C197.175 77.8056 195.511 77.4856 194.071 76.8456C192.663 76.2056 191.575 75.3256 190.807 74.2056C190.039 73.0536 189.655 71.7576 189.655 70.3176C189.655 68.9416 189.975 67.6936 190.615 66.5736C191.287 65.4536 192.359 64.5576 193.831 63.8856C195.335 63.2136 197.351 62.8776 199.879 62.8776H207.943V66.1896H200.071C197.767 66.1896 196.215 66.5736 195.415 67.3416C194.615 68.1096 194.215 69.0376 194.215 70.1256C194.215 71.3736 194.711 72.3816 195.703 73.1496C196.695 73.8856 198.071 74.2536 199.831 74.2536C201.559 74.2536 203.063 73.8696 204.343 73.1016C205.655 72.3336 206.599 71.2136 207.175 69.7416L208.087 72.9096C207.479 74.4136 206.407 75.6136 204.871 76.5096C203.335 77.3736 201.399 77.8056 199.063 77.8056ZM233.474 77.5176L222.338 52.0776H227.138L237.026 75.1176H234.722L244.802 52.0776H249.314L238.178 77.5176H233.474ZM271.199 77.8056C268.479 77.8056 266.079 77.2456 263.999 76.1256C261.951 75.0056 260.351 73.4696 259.199 71.5176C258.079 69.5656 257.519 67.3256 257.519 64.7976C257.519 62.2696 258.063 60.0296 259.151 58.0776C260.271 56.1256 261.791 54.6056 263.711 53.5176C265.663 52.3976 267.855 51.8376 270.287 51.8376C272.751 51.8376 274.927 52.3816 276.815 53.4696C278.703 54.5576 280.175 56.0936 281.231 58.0776C282.319 60.0296 282.863 62.3176 282.863 64.9416C282.863 65.1336 282.847 65.3576 282.815 65.6136C282.815 65.8696 282.799 66.1096 282.767 66.3336H261.119V63.0216H280.367L278.495 64.1736C278.527 62.5416 278.191 61.0856 277.487 59.8056C276.783 58.5256 275.807 57.5336 274.559 56.8296C273.343 56.0936 271.919 55.7256 270.287 55.7256C268.687 55.7256 267.263 56.0936 266.015 56.8296C264.767 57.5336 263.791 58.5416 263.087 59.8536C262.383 61.1336 262.031 62.6056 262.031 64.2696V65.0376C262.031 66.7336 262.415 68.2536 263.183 69.5976C263.983 70.9096 265.087 71.9336 266.495 72.6696C267.903 73.4056 269.519 73.7736 271.343 73.7736C272.847 73.7736 274.207 73.5176 275.423 73.0056C276.671 72.4936 277.759 71.7256 278.687 70.7016L281.231 73.6776C280.079 75.0216 278.639 76.0456 276.911 76.7496C275.215 77.4536 273.311 77.8056 271.199 77.8056ZM296.222 77.5176V41.9016H300.83V77.5176H296.222Z" fill="white"/>
</svg>
