<svg width="308" height="59" viewBox="0 0 308 59" fill="none" xmlns="http://www.w3.org/2000/svg">
<g clip-path="url(#clip0_14_539)">
<path d="M28.1856 17.8144C26.1498 19.0763 23.2728 19.1142 21.2118 17.9074C19.7882 17.0737 18.1767 16.6036 16.4698 16.6036C10.6875 16.6036 6 21.9975 6 28.6511C6 35.3048 10.6875 40.6985 16.4698 40.6985C18.2637 40.6985 19.9522 40.1793 21.4281 39.2645C23.4637 38.0026 26.3409 37.9648 28.4018 39.1717C29.8255 40.0053 31.437 49.1729 33.1439 49.1729C38.9263 49.1729 51.0715 35.0816 51.0715 28.428C51.0715 21.7743 38.9263 7.16919 33.1439 7.16919C31.35 7.16919 29.6615 16.8996 28.1856 17.8144Z" fill="#F48D3C"/>
</g>
<path d="M77.2344 38.75L82.5938 20.75H87.8125L79.8906 43.5H76.4531L77.2344 38.75ZM72.2969 20.75L77.6406 38.75L78.4531 43.5H74.9844L67.1094 20.75H72.2969ZM94.4062 26.5938V43.5H89.8906V26.5938H94.4062ZM89.6094 22.1875C89.6094 21.5312 89.8385 20.9896 90.2969 20.5625C90.7552 20.1354 91.3698 19.9219 92.1406 19.9219C92.901 19.9219 93.5104 20.1354 93.9688 20.5625C94.4375 20.9896 94.6719 21.5312 94.6719 22.1875C94.6719 22.8438 94.4375 23.3854 93.9688 23.8125C93.5104 24.2396 92.901 24.4531 92.1406 24.4531C91.3698 24.4531 90.7552 24.2396 90.2969 23.8125C89.8385 23.3854 89.6094 22.8438 89.6094 22.1875ZM98.125 19.5H102.625V39.625L102.172 43.5H98.125V19.5ZM113.328 34.875V35.2031C113.328 36.4635 113.193 37.6198 112.922 38.6719C112.661 39.724 112.255 40.6354 111.703 41.4062C111.151 42.1667 110.464 42.7604 109.641 43.1875C108.828 43.6042 107.87 43.8125 106.766 43.8125C105.734 43.8125 104.839 43.6042 104.078 43.1875C103.328 42.7708 102.698 42.1823 102.188 41.4219C101.677 40.6615 101.266 39.7708 100.953 38.75C100.641 37.7292 100.406 36.6146 100.25 35.4062V34.6875C100.406 33.4792 100.641 32.3646 100.953 31.3438C101.266 30.3229 101.677 29.4323 102.188 28.6719C102.698 27.9115 103.328 27.3229 104.078 26.9062C104.828 26.4896 105.714 26.2812 106.734 26.2812C107.849 26.2812 108.818 26.4948 109.641 26.9219C110.474 27.3385 111.161 27.9323 111.703 28.7031C112.255 29.4635 112.661 30.3698 112.922 31.4219C113.193 32.4635 113.328 33.6146 113.328 34.875ZM108.828 35.2031V34.875C108.828 34.1875 108.776 33.5417 108.672 32.9375C108.578 32.3229 108.411 31.7865 108.172 31.3281C107.932 30.8594 107.604 30.4896 107.188 30.2188C106.781 29.9479 106.255 29.8125 105.609 29.8125C104.995 29.8125 104.474 29.9167 104.047 30.125C103.62 30.3333 103.266 30.625 102.984 31C102.714 31.375 102.51 31.8229 102.375 32.3438C102.24 32.8542 102.156 33.4167 102.125 34.0312V36.0781C102.156 36.901 102.292 37.6302 102.531 38.2656C102.781 38.8906 103.156 39.3854 103.656 39.75C104.167 40.1042 104.828 40.2812 105.641 40.2812C106.276 40.2812 106.802 40.1562 107.219 39.9062C107.635 39.6562 107.958 39.3021 108.188 38.8438C108.427 38.3854 108.594 37.849 108.688 37.2344C108.781 36.6094 108.828 35.9323 108.828 35.2031ZM123.906 43.8125C122.594 43.8125 121.417 43.6042 120.375 43.1875C119.333 42.7604 118.448 42.1719 117.719 41.4219C117 40.6719 116.448 39.8021 116.062 38.8125C115.677 37.8125 115.484 36.75 115.484 35.625V35C115.484 33.7188 115.667 32.5469 116.031 31.4844C116.396 30.4219 116.917 29.5 117.594 28.7188C118.281 27.9375 119.115 27.3385 120.094 26.9219C121.073 26.4948 122.177 26.2812 123.406 26.2812C124.604 26.2812 125.667 26.4792 126.594 26.875C127.521 27.2708 128.297 27.8333 128.922 28.5625C129.557 29.2917 130.036 30.1667 130.359 31.1875C130.682 32.1979 130.844 33.3229 130.844 34.5625V36.4375H117.406V33.4375H126.422V33.0938C126.422 32.4688 126.307 31.9115 126.078 31.4219C125.859 30.9219 125.526 30.526 125.078 30.2344C124.63 29.9427 124.057 29.7969 123.359 29.7969C122.766 29.7969 122.255 29.9271 121.828 30.1875C121.401 30.4479 121.052 30.8125 120.781 31.2812C120.521 31.75 120.323 32.3021 120.188 32.9375C120.062 33.5625 120 34.25 120 35V35.625C120 36.3021 120.094 36.9271 120.281 37.5C120.479 38.0729 120.755 38.5677 121.109 38.9844C121.474 39.401 121.911 39.724 122.422 39.9531C122.943 40.1823 123.531 40.2969 124.188 40.2969C125 40.2969 125.755 40.1406 126.453 39.8281C127.161 39.5052 127.771 39.0208 128.281 38.375L130.469 40.75C130.115 41.2604 129.63 41.75 129.016 42.2188C128.411 42.6875 127.682 43.0729 126.828 43.375C125.974 43.6667 125 43.8125 123.906 43.8125ZM146.875 35.9531H151.547C151.453 37.4844 151.031 38.8438 150.281 40.0312C149.542 41.2188 148.505 42.1458 147.172 42.8125C145.849 43.4792 144.255 43.8125 142.391 43.8125C140.932 43.8125 139.625 43.5625 138.469 43.0625C137.312 42.5521 136.323 41.8229 135.5 40.875C134.688 39.9271 134.068 38.7812 133.641 37.4375C133.214 36.0938 133 34.5885 133 32.9219V31.3438C133 29.6771 133.219 28.1719 133.656 26.8281C134.104 25.474 134.74 24.3229 135.562 23.375C136.396 22.4271 137.391 21.6979 138.547 21.1875C139.703 20.6771 140.995 20.4219 142.422 20.4219C144.318 20.4219 145.917 20.7656 147.219 21.4531C148.531 22.1406 149.547 23.0885 150.266 24.2969C150.995 25.5052 151.432 26.8802 151.578 28.4219H146.891C146.839 27.5052 146.656 26.7292 146.344 26.0938C146.031 25.4479 145.557 24.9635 144.922 24.6406C144.297 24.3073 143.464 24.1406 142.422 24.1406C141.641 24.1406 140.958 24.2865 140.375 24.5781C139.792 24.8698 139.302 25.3125 138.906 25.9062C138.51 26.5 138.214 27.25 138.016 28.1562C137.828 29.0521 137.734 30.1042 137.734 31.3125V32.9219C137.734 34.099 137.823 35.1354 138 36.0312C138.177 36.9167 138.448 37.6667 138.812 38.2812C139.188 38.8854 139.667 39.3438 140.25 39.6562C140.844 39.9583 141.557 40.1094 142.391 40.1094C143.37 40.1094 144.177 39.9531 144.812 39.6406C145.448 39.3281 145.932 38.8646 146.266 38.25C146.609 37.6354 146.812 36.8698 146.875 35.9531ZM163.469 39.6875V32.1562C163.469 31.6146 163.38 31.151 163.203 30.7656C163.026 30.3698 162.75 30.0625 162.375 29.8438C162.01 29.625 161.536 29.5156 160.953 29.5156C160.453 29.5156 160.021 29.6042 159.656 29.7812C159.292 29.9479 159.01 30.1927 158.812 30.5156C158.615 30.8281 158.516 31.1979 158.516 31.625H154.016C154.016 30.9062 154.182 30.224 154.516 29.5781C154.849 28.9323 155.333 28.3646 155.969 27.875C156.604 27.375 157.359 26.9844 158.234 26.7031C159.12 26.4219 160.109 26.2812 161.203 26.2812C162.516 26.2812 163.682 26.5 164.703 26.9375C165.724 27.375 166.526 28.0312 167.109 28.9062C167.703 29.7812 168 30.875 168 32.1875V39.4219C168 40.349 168.057 41.1094 168.172 41.7031C168.286 42.2865 168.453 42.7969 168.672 43.2344V43.5H164.125C163.906 43.0417 163.74 42.4688 163.625 41.7812C163.521 41.0833 163.469 40.3854 163.469 39.6875ZM164.062 33.2031L164.094 35.75H161.578C160.984 35.75 160.469 35.8177 160.031 35.9531C159.594 36.0885 159.234 36.2812 158.953 36.5312C158.672 36.7708 158.464 37.0521 158.328 37.375C158.203 37.6979 158.141 38.0521 158.141 38.4375C158.141 38.8229 158.229 39.1719 158.406 39.4844C158.583 39.7865 158.839 40.026 159.172 40.2031C159.505 40.3698 159.896 40.4531 160.344 40.4531C161.021 40.4531 161.609 40.3177 162.109 40.0469C162.609 39.776 162.995 39.4427 163.266 39.0469C163.547 38.651 163.693 38.276 163.703 37.9219L164.891 39.8281C164.724 40.2552 164.495 40.6979 164.203 41.1562C163.922 41.6146 163.562 42.0469 163.125 42.4531C162.688 42.849 162.161 43.1771 161.547 43.4375C160.932 43.6875 160.203 43.8125 159.359 43.8125C158.286 43.8125 157.312 43.599 156.438 43.1719C155.573 42.7344 154.885 42.1354 154.375 41.375C153.875 40.6042 153.625 39.7292 153.625 38.75C153.625 37.8646 153.792 37.0781 154.125 36.3906C154.458 35.7031 154.948 35.125 155.594 34.6562C156.25 34.1771 157.068 33.8177 158.047 33.5781C159.026 33.3281 160.161 33.2031 161.453 33.2031H164.062ZM180.609 38.8281C180.609 38.5052 180.516 38.2135 180.328 37.9531C180.141 37.6927 179.792 37.4531 179.281 37.2344C178.781 37.0052 178.057 36.7969 177.109 36.6094C176.255 36.4219 175.458 36.1875 174.719 35.9062C173.99 35.6146 173.354 35.2656 172.812 34.8594C172.281 34.4531 171.865 33.974 171.562 33.4219C171.26 32.8594 171.109 32.2188 171.109 31.5C171.109 30.7917 171.26 30.125 171.562 29.5C171.875 28.875 172.318 28.3229 172.891 27.8438C173.474 27.3542 174.182 26.974 175.016 26.7031C175.859 26.4219 176.807 26.2812 177.859 26.2812C179.328 26.2812 180.589 26.5156 181.641 26.9844C182.703 27.4531 183.516 28.099 184.078 28.9219C184.651 29.7344 184.938 30.6615 184.938 31.7031H180.438C180.438 31.2656 180.344 30.875 180.156 30.5312C179.979 30.1771 179.698 29.901 179.312 29.7031C178.938 29.4948 178.448 29.3906 177.844 29.3906C177.344 29.3906 176.911 29.4792 176.547 29.6562C176.182 29.8229 175.901 30.0521 175.703 30.3438C175.516 30.625 175.422 30.9375 175.422 31.2812C175.422 31.5417 175.474 31.776 175.578 31.9844C175.693 32.1823 175.875 32.3646 176.125 32.5312C176.375 32.6979 176.698 32.8542 177.094 33C177.5 33.1354 178 33.2604 178.594 33.375C179.812 33.625 180.901 33.9531 181.859 34.3594C182.818 34.7552 183.578 35.2969 184.141 35.9844C184.703 36.6615 184.984 37.5521 184.984 38.6562C184.984 39.4062 184.818 40.0938 184.484 40.7188C184.151 41.3438 183.672 41.8906 183.047 42.3594C182.422 42.8177 181.672 43.1771 180.797 43.4375C179.932 43.6875 178.958 43.8125 177.875 43.8125C176.302 43.8125 174.969 43.5312 173.875 42.9688C172.792 42.4062 171.969 41.6927 171.406 40.8281C170.854 39.9531 170.578 39.0573 170.578 38.1406H174.844C174.865 38.7552 175.021 39.25 175.312 39.625C175.615 40 175.995 40.2708 176.453 40.4375C176.922 40.6042 177.427 40.6875 177.969 40.6875C178.552 40.6875 179.036 40.6094 179.422 40.4531C179.807 40.2865 180.099 40.0677 180.297 39.7969C180.505 39.5156 180.609 39.1927 180.609 38.8281ZM196.188 26.5938V29.7812H186.344V26.5938H196.188ZM188.781 22.4219H193.281V38.4062C193.281 38.8958 193.344 39.2708 193.469 39.5312C193.604 39.7917 193.802 39.974 194.062 40.0781C194.323 40.1719 194.651 40.2188 195.047 40.2188C195.328 40.2188 195.578 40.2083 195.797 40.1875C196.026 40.1562 196.219 40.125 196.375 40.0938L196.391 43.4062C196.005 43.5312 195.589 43.6302 195.141 43.7031C194.693 43.776 194.198 43.8125 193.656 43.8125C192.667 43.8125 191.802 43.651 191.062 43.3281C190.333 42.9948 189.771 42.4635 189.375 41.7344C188.979 41.0052 188.781 40.0469 188.781 38.8594V22.4219ZM218.844 37.5469C218.844 37.1406 218.781 36.776 218.656 36.4531C218.542 36.1198 218.323 35.8177 218 35.5469C217.677 35.2656 217.224 34.9896 216.641 34.7188C216.057 34.4479 215.302 34.1667 214.375 33.875C213.344 33.5417 212.365 33.1667 211.438 32.75C210.521 32.3333 209.708 31.849 209 31.2969C208.302 30.7344 207.75 30.0833 207.344 29.3438C206.948 28.6042 206.75 27.7448 206.75 26.7656C206.75 25.8177 206.958 24.9583 207.375 24.1875C207.792 23.4062 208.375 22.7396 209.125 22.1875C209.875 21.625 210.76 21.1927 211.781 20.8906C212.812 20.5885 213.943 20.4375 215.172 20.4375C216.849 20.4375 218.312 20.7396 219.562 21.3438C220.812 21.9479 221.781 22.776 222.469 23.8281C223.167 24.8802 223.516 26.0833 223.516 27.4375H218.859C218.859 26.7708 218.719 26.1875 218.438 25.6875C218.167 25.1771 217.75 24.776 217.188 24.4844C216.635 24.1927 215.938 24.0469 215.094 24.0469C214.281 24.0469 213.604 24.1719 213.062 24.4219C212.521 24.6615 212.115 24.9896 211.844 25.4062C211.573 25.8125 211.438 26.2708 211.438 26.7812C211.438 27.1667 211.531 27.5156 211.719 27.8281C211.917 28.1406 212.208 28.4323 212.594 28.7031C212.979 28.974 213.453 29.2292 214.016 29.4688C214.578 29.7083 215.229 29.9427 215.969 30.1719C217.208 30.5469 218.297 30.9688 219.234 31.4375C220.182 31.9062 220.974 32.4323 221.609 33.0156C222.245 33.599 222.724 34.2604 223.047 35C223.37 35.7396 223.531 36.5781 223.531 37.5156C223.531 38.5052 223.339 39.3906 222.953 40.1719C222.568 40.9531 222.01 41.6146 221.281 42.1562C220.552 42.6979 219.682 43.1094 218.672 43.3906C217.661 43.6719 216.531 43.8125 215.281 43.8125C214.156 43.8125 213.047 43.6667 211.953 43.375C210.859 43.0729 209.865 42.6198 208.969 42.0156C208.083 41.4115 207.375 40.6406 206.844 39.7031C206.312 38.7656 206.047 37.6562 206.047 36.375H210.75C210.75 37.0833 210.859 37.6823 211.078 38.1719C211.297 38.6615 211.604 39.0573 212 39.3594C212.406 39.6615 212.885 39.8802 213.438 40.0156C214 40.151 214.615 40.2188 215.281 40.2188C216.094 40.2188 216.76 40.1042 217.281 39.875C217.812 39.6458 218.203 39.3281 218.453 38.9219C218.714 38.5156 218.844 38.0573 218.844 37.5469ZM234.719 26.5938V29.7812H224.875V26.5938H234.719ZM227.312 22.4219H231.812V38.4062C231.812 38.8958 231.875 39.2708 232 39.5312C232.135 39.7917 232.333 39.974 232.594 40.0781C232.854 40.1719 233.182 40.2188 233.578 40.2188C233.859 40.2188 234.109 40.2083 234.328 40.1875C234.557 40.1562 234.75 40.125 234.906 40.0938L234.922 43.4062C234.536 43.5312 234.12 43.6302 233.672 43.7031C233.224 43.776 232.729 43.8125 232.188 43.8125C231.198 43.8125 230.333 43.651 229.594 43.3281C228.865 42.9948 228.302 42.4635 227.906 41.7344C227.51 41.0052 227.312 40.0469 227.312 38.8594V22.4219ZM247.281 39.4531V26.5938H251.781V43.5H247.547L247.281 39.4531ZM247.781 35.9844L249.109 35.9531C249.109 37.0781 248.979 38.125 248.719 39.0938C248.458 40.0521 248.068 40.8854 247.547 41.5938C247.026 42.2917 246.37 42.8385 245.578 43.2344C244.786 43.6198 243.854 43.8125 242.781 43.8125C241.958 43.8125 241.198 43.6979 240.5 43.4688C239.812 43.2292 239.219 42.8594 238.719 42.3594C238.229 41.849 237.844 41.1979 237.562 40.4062C237.292 39.6042 237.156 38.6406 237.156 37.5156V26.5938H241.656V37.5469C241.656 38.0469 241.714 38.4688 241.828 38.8125C241.953 39.1562 242.125 39.4375 242.344 39.6562C242.562 39.875 242.818 40.0312 243.109 40.125C243.411 40.2188 243.745 40.2656 244.109 40.2656C245.036 40.2656 245.766 40.0781 246.297 39.7031C246.839 39.3281 247.219 38.8177 247.438 38.1719C247.667 37.5156 247.781 36.7865 247.781 35.9844ZM265.203 39.8125V19.5H269.734V43.5H265.656L265.203 39.8125ZM254.516 35.25V34.9219C254.516 33.6302 254.661 32.4583 254.953 31.4062C255.245 30.3438 255.672 29.4323 256.234 28.6719C256.797 27.9115 257.49 27.3229 258.312 26.9062C259.135 26.4896 260.073 26.2812 261.125 26.2812C262.115 26.2812 262.979 26.4896 263.719 26.9062C264.469 27.3229 265.104 27.9167 265.625 28.6875C266.156 29.4479 266.583 30.349 266.906 31.3906C267.229 32.4219 267.464 33.5521 267.609 34.7812V35.5C267.464 36.6771 267.229 37.7708 266.906 38.7812C266.583 39.7917 266.156 40.6771 265.625 41.4375C265.104 42.1875 264.469 42.7708 263.719 43.1875C262.969 43.6042 262.094 43.8125 261.094 43.8125C260.042 43.8125 259.104 43.599 258.281 43.1719C257.469 42.7448 256.781 42.1458 256.219 41.375C255.667 40.6042 255.245 39.6979 254.953 38.6562C254.661 37.6146 254.516 36.4792 254.516 35.25ZM259.016 34.9219V35.25C259.016 35.9479 259.068 36.599 259.172 37.2031C259.286 37.8073 259.469 38.3438 259.719 38.8125C259.979 39.2708 260.312 39.6302 260.719 39.8906C261.135 40.1406 261.641 40.2656 262.234 40.2656C263.005 40.2656 263.641 40.0938 264.141 39.75C264.641 39.3958 265.021 38.9115 265.281 38.2969C265.552 37.6823 265.708 36.974 265.75 36.1719V34.125C265.719 33.4688 265.625 32.8802 265.469 32.3594C265.323 31.8281 265.104 31.375 264.812 31C264.531 30.625 264.177 30.3333 263.75 30.125C263.333 29.9167 262.839 29.8125 262.266 29.8125C261.682 29.8125 261.182 29.9479 260.766 30.2188C260.349 30.4792 260.01 30.8385 259.75 31.2969C259.5 31.7552 259.312 32.2969 259.188 32.9219C259.073 33.5365 259.016 34.2031 259.016 34.9219ZM278 26.5938V43.5H273.484V26.5938H278ZM273.203 22.1875C273.203 21.5312 273.432 20.9896 273.891 20.5625C274.349 20.1354 274.964 19.9219 275.734 19.9219C276.495 19.9219 277.104 20.1354 277.562 20.5625C278.031 20.9896 278.266 21.5312 278.266 22.1875C278.266 22.8438 278.031 23.3854 277.562 23.8125C277.104 24.2396 276.495 24.4531 275.734 24.4531C274.964 24.4531 274.349 24.2396 273.891 23.8125C273.432 23.3854 273.203 22.8438 273.203 22.1875ZM281 35.2188V34.8906C281 33.651 281.177 32.5104 281.531 31.4688C281.885 30.4167 282.401 29.5052 283.078 28.7344C283.755 27.9635 284.589 27.3646 285.578 26.9375C286.568 26.5 287.703 26.2812 288.984 26.2812C290.266 26.2812 291.406 26.5 292.406 26.9375C293.406 27.3646 294.245 27.9635 294.922 28.7344C295.609 29.5052 296.13 30.4167 296.484 31.4688C296.839 32.5104 297.016 33.651 297.016 34.8906V35.2188C297.016 36.4479 296.839 37.5885 296.484 38.6406C296.13 39.6823 295.609 40.5938 294.922 41.375C294.245 42.1458 293.411 42.7448 292.422 43.1719C291.432 43.599 290.297 43.8125 289.016 43.8125C287.734 43.8125 286.594 43.599 285.594 43.1719C284.604 42.7448 283.766 42.1458 283.078 41.375C282.401 40.5938 281.885 39.6823 281.531 38.6406C281.177 37.5885 281 36.4479 281 35.2188ZM285.5 34.8906V35.2188C285.5 35.9271 285.562 36.5885 285.688 37.2031C285.812 37.8177 286.01 38.3594 286.281 38.8281C286.562 39.2865 286.927 39.6458 287.375 39.9062C287.823 40.1667 288.37 40.2969 289.016 40.2969C289.641 40.2969 290.177 40.1667 290.625 39.9062C291.073 39.6458 291.432 39.2865 291.703 38.8281C291.974 38.3594 292.172 37.8177 292.297 37.2031C292.432 36.5885 292.5 35.9271 292.5 35.2188V34.8906C292.5 34.2031 292.432 33.5573 292.297 32.9531C292.172 32.3385 291.969 31.7969 291.688 31.3281C291.417 30.849 291.057 30.474 290.609 30.2031C290.161 29.9323 289.62 29.7969 288.984 29.7969C288.349 29.7969 287.807 29.9323 287.359 30.2031C286.922 30.474 286.562 30.849 286.281 31.3281C286.01 31.7969 285.812 32.3385 285.688 32.9531C285.562 33.5573 285.5 34.2031 285.5 34.8906Z" fill="#F48D3C"/>
<defs>
<clipPath id="clip0_14_539">
<rect width="45" height="45" fill="white" transform="translate(6 7)"/>
</clipPath>
</defs>
</svg>
